<svg version="1.1" id="Layer_1" xmlns="http://www.w3.org/2000/svg" xmlns:xlink="http://www.w3.org/1999/xlink" x="0px" y="0px"
	 width="100%" viewBox="0 0 457 299" enable-background="new 0 0 457 299" xml:space="preserve">
<path fill="#FF662A" opacity="1.000000" stroke="none" 
	d="
M271.000000,300.000000 
	C189.312439,300.000000 107.624878,300.000000 25.232533,299.753784 
	C14.690330,294.960358 7.222714,287.694305 1.000000,279.000000 
	C1.000000,193.645767 1.000000,108.291542 1.000500,22.102861 
	C7.288266,12.947414 14.908533,6.139006 24.000000,1.000000 
	C106.354225,1.000000 188.708450,1.000000 271.607056,1.338115 
	C292.968842,13.184537 302.800110,30.822233 302.219543,54.599392 
	C301.873871,68.755554 302.147095,82.927071 302.168121,97.091652 
	C302.170715,98.838577 302.334320,100.585258 302.441498,102.689079 
	C315.663788,102.689079 328.306152,102.745979 340.946075,102.596687 
	C342.144775,102.582527 343.797424,101.567513 344.445862,100.524063 
	C350.700104,90.460297 359.827423,86.489082 371.443634,86.620499 
	C391.771393,86.850479 412.107086,86.902596 432.432526,86.585518 
	C441.662384,86.441536 450.326874,87.458725 458.000000,93.000000 
	C458.000000,130.354233 458.000000,167.708450 457.699493,205.688354 
	C451.760590,210.974319 445.260071,212.937866 437.976685,212.913757 
	C415.327545,212.838776 392.677856,212.840591 370.028656,212.906616 
	C359.780762,212.936478 351.751190,208.901276 345.548157,200.732376 
	C344.488434,199.336853 342.082275,198.282471 340.274994,198.246887 
	C328.954681,198.023956 317.627808,198.121292 306.303192,198.153549 
	C305.036194,198.157166 303.769958,198.417969 302.158478,198.598053 
	C302.158478,200.721039 302.159302,202.527664 302.158325,204.334290 
	C302.149780,220.155518 302.433594,235.983673 302.058289,251.796204 
	C301.586304,271.681915 292.231110,286.626495 275.425873,297.050507 
	C273.920105,297.984528 272.473877,299.014557 271.000000,300.000000 
M51.385780,169.421844 
	C54.808899,168.290710 58.232018,167.159576 61.958145,165.928314 
	C61.958145,163.084335 61.958145,159.728806 61.958145,157.374313 
	C57.852318,155.757538 54.377468,154.389221 50.864609,152.180481 
	C50.893272,146.207245 50.893272,146.207245 62.399124,144.628540 
	C62.399124,143.104309 62.431648,141.492615 62.389992,139.882843 
	C62.348183,138.267212 62.232437,136.653503 62.153145,135.117386 
	C50.316513,133.157028 50.083363,132.960205 51.808266,125.653137 
	C55.053673,124.773285 58.299076,123.893433 61.859169,122.928268 
	C61.859169,117.653305 61.859169,111.953415 61.859169,105.947227 
	C57.716221,105.947227 53.988651,105.947227 49.445011,105.947227 
	C49.445011,112.757759 49.445011,119.341599 49.224228,126.849220 
	C49.297768,135.585403 49.371307,144.321579 49.305145,153.975922 
	C49.351906,159.292938 49.398663,164.609955 49.227928,170.802002 
	C49.301830,172.895859 49.375732,174.989731 49.312222,177.997208 
	C49.312222,183.601196 49.312222,189.205170 49.312222,195.061676 
	C53.974499,195.061676 57.707336,195.061676 61.855003,195.061676 
	C61.855003,189.234756 61.855003,183.714798 61.855003,178.505219 
	C58.306244,177.929504 55.220196,177.428864 51.680527,176.271805 
	C51.417168,174.173096 51.153809,172.074387 51.385780,169.421844 
M118.500122,23.273933 
	C95.004204,23.276817 71.507568,23.169693 48.012600,23.320559 
	C31.861410,23.424265 20.410051,34.722279 20.390549,50.654190 
	C20.309362,116.976807 20.303526,183.299667 20.397490,249.622253 
	C20.420855,266.114716 31.721664,277.202850 48.142979,277.211060 
	C114.299049,277.244202 180.455170,277.247528 246.611221,277.208282 
	C264.056427,277.197937 275.002563,266.190674 275.031281,248.778122 
	C275.067291,226.948349 275.046600,205.118454 275.030670,183.288635 
	C275.029480,181.674194 274.869263,180.059891 274.784637,178.476318 
	C273.974609,178.254578 273.510773,178.016830 273.046692,178.016373 
	C242.885101,177.986115 212.723282,177.931519 182.562485,178.083847 
	C180.961105,178.091934 178.942429,179.513290 177.834991,180.864410 
	C155.877182,207.653687 118.904198,207.619781 97.036514,180.737579 
	C96.150307,179.648163 94.874023,178.154648 93.732933,178.112610 
	C86.994713,177.864365 80.242714,177.990311 72.736748,177.990311 
	C72.736748,184.776535 73.226204,190.800766 72.616287,196.711533 
	C71.803139,204.591873 69.474335,206.227112 61.568718,206.243683 
	C59.569046,206.247864 57.569359,206.244766 55.569679,206.244766 
	C40.227421,206.244812 38.677940,204.825485 38.608162,189.189209 
	C38.492893,163.360550 38.523262,137.530838 38.622990,111.702065 
	C38.637005,108.072563 39.130367,104.392021 39.869427,100.832176 
	C40.710308,96.781883 43.272327,94.610535 47.730476,94.768082 
	C53.222740,94.962166 58.731155,94.945190 64.224869,94.773102 
	C68.472176,94.640060 70.975044,96.780167 71.782768,100.569954 
	C72.609047,104.446770 72.903801,108.460640 73.142609,112.431877 
	C73.359543,116.039284 73.188515,119.670021 73.188515,123.875298 
	C79.241867,123.875298 84.695908,123.717690 90.134605,123.938225 
	C93.090797,124.058098 94.919388,123.140182 96.744102,120.703674 
	C117.260124,93.308830 156.756760,92.934616 177.560471,119.998672 
	C179.896515,123.037689 182.234955,123.964737 185.869003,123.947594 
	C213.697281,123.816299 241.526428,123.875465 269.355316,123.875458 
	C271.119751,123.875458 272.884155,123.875473 275.038086,123.875473 
	C275.038086,121.503654 275.038086,119.862541 275.038086,118.221428 
	C275.037872,96.558228 275.051086,74.895012 275.033508,53.231823 
	C275.017883,33.985260 264.292053,23.286797 244.980072,23.279457 
	C203.153427,23.263561 161.326782,23.274179 118.500122,23.273933 
M429.908600,125.236992 
	C433.256470,130.863739 431.303436,134.586182 424.724335,134.625931 
	C407.897125,134.727646 391.068939,134.662445 374.241119,134.663971 
	C372.297058,134.664139 370.353027,134.663986 368.181885,134.663986 
	C368.181885,138.352203 368.181885,141.419510 368.181885,145.044815 
	C370.229980,145.044815 372.020905,145.044434 373.811859,145.044876 
	C384.641632,145.047577 395.471436,145.064285 406.301178,145.045715 
	C410.034851,145.039322 412.649445,146.697372 412.666229,150.506439 
	C412.683258,154.376740 409.958893,155.932266 406.277679,155.922256 
	C404.444977,155.917282 402.612244,155.928009 400.779510,155.928131 
	C389.998962,155.928818 379.218414,155.928467 368.247711,155.928467 
	C368.247711,159.875961 368.247711,163.253708 368.247711,167.078522 
	C375.222687,167.078522 381.853638,167.071060 388.484619,167.081573 
	C391.998291,167.087143 394.417938,168.757339 394.565582,172.310150 
	C394.715088,175.907043 392.352020,177.686127 388.872742,177.910446 
	C387.213043,178.017471 385.541687,177.949112 383.875610,177.950043 
	C378.623840,177.952972 373.372101,177.951111 367.819397,177.951111 
	C367.968231,181.033951 368.075806,183.262741 368.184875,185.521835 
	C392.370148,185.521835 415.953766,185.521835 439.730408,185.521835 
	C439.730408,161.520737 439.730408,137.827972 439.730408,114.197937 
	C415.615234,114.197937 391.898712,114.197937 368.234467,114.197937 
	C368.234467,117.554642 368.234467,120.472557 368.234467,123.874748 
	C370.348846,123.874748 372.147888,123.875710 373.946930,123.874596 
	C390.274902,123.864456 406.602997,123.821159 422.930695,123.883926 
	C425.035583,123.892014 427.138397,124.449158 429.908600,125.236992 
M231.500000,155.927002 
	C217.055023,155.927002 202.610031,155.927002 188.002640,155.927002 
	C187.169083,159.704163 186.426483,163.069153 185.610672,166.765900 
	C215.523071,166.765900 245.032074,166.765900 274.698303,166.765900 
	C274.698303,163.085678 274.698303,159.713242 274.698303,155.926987 
	C260.394379,155.926987 246.447189,155.926987 231.500000,155.927002 
M272.323273,134.684280 
	C243.606354,134.684280 214.889435,134.684280 185.777252,134.684280 
	C186.628174,138.571213 187.297699,141.629562 187.958023,144.645874 
	C217.075378,144.645874 245.934250,144.645874 275.955231,144.645874 
	C274.945770,140.902298 274.114807,137.820724 272.323273,134.684280 
M326.492798,167.075287 
	C331.086151,167.075287 335.679474,167.075287 340.398315,167.075287 
	C340.398315,163.051834 340.398315,159.680634 340.398315,156.333450 
	C327.508270,156.333450 315.000061,156.333450 302.443970,156.333450 
	C302.443970,160.001190 302.443970,163.247620 302.443970,167.075287 
	C310.315277,167.075287 317.905060,167.075287 326.492798,167.075287 
M322.499420,145.082062 
	C328.417328,145.082062 334.335236,145.082062 340.475708,145.082062 
	C340.475708,141.394867 340.475708,138.336487 340.475708,134.991150 
	C327.681885,134.991150 315.183868,134.991150 302.447388,134.991150 
	C302.447388,138.382263 302.447388,141.438339 302.447388,145.082062 
	C308.984985,145.082062 315.242493,145.082062 322.499420,145.082062 
M82.464218,167.086075 
	C84.666145,167.086075 86.868080,167.086075 89.468727,167.086075 
	C88.476250,162.832581 87.699181,159.502274 86.958443,156.327667 
	C82.223206,156.327667 77.858040,156.327667 73.438156,156.327667 
	C73.438156,159.992462 73.438156,163.233810 73.438156,167.086090 
	C76.300560,167.086090 78.901466,167.086090 82.464218,167.086075 
M75.809578,145.077927 
	C79.444031,145.077927 83.078491,145.077927 86.956108,145.077927 
	C87.663124,141.589935 88.304169,138.427429 88.977722,135.104523 
	C83.512924,135.104523 78.503517,135.104523 72.275879,135.104523 
	C73.269814,138.876495 74.080086,141.951508 75.809578,145.077927 
z"/>
<path fill="#FFFEFE" opacity="1.000000" stroke="none" 
	d="
M271.468658,300.000000 
	C272.473877,299.014557 273.920105,297.984528 275.425873,297.050507 
	C292.231110,286.626495 301.586304,271.681915 302.058289,251.796204 
	C302.433594,235.983673 302.149780,220.155518 302.158325,204.334290 
	C302.159302,202.527664 302.158478,200.721039 302.158478,198.598053 
	C303.769958,198.417969 305.036194,198.157166 306.303192,198.153549 
	C317.627808,198.121292 328.954681,198.023956 340.274994,198.246887 
	C342.082275,198.282471 344.488434,199.336853 345.548157,200.732376 
	C351.751190,208.901276 359.780762,212.936478 370.028656,212.906616 
	C392.677856,212.840591 415.327545,212.838776 437.976685,212.913757 
	C445.260071,212.937866 451.760590,210.974319 457.699493,206.157013 
	C458.000000,237.284485 458.000000,268.568970 458.000000,300.000000 
	C395.979187,300.000000 333.958252,300.000000 271.468658,300.000000 
M378.483704,220.855255 
	C375.492401,220.861801 372.497375,220.965332 369.510712,220.850754 
	C365.636169,220.702118 365.699677,223.312454 365.972473,225.874146 
	C366.233093,228.321640 364.396027,232.075775 369.227112,232.128891 
	C374.876617,232.190994 380.530640,232.238373 386.174591,232.049591 
	C387.193390,232.015518 388.753632,231.017914 389.076965,230.112671 
	C391.252045,224.022125 388.912598,220.873627 382.455780,220.856079 
	C381.458649,220.853363 380.461548,220.855408 378.483704,220.855255 
z"/>
<path fill="#FFFEFD" opacity="1.000000" stroke="none" 
	d="
M458.000000,92.531342 
	C450.326874,87.458725 441.662384,86.441536 432.432526,86.585518 
	C412.107086,86.902596 391.771393,86.850479 371.443634,86.620499 
	C359.827423,86.489082 350.700104,90.460297 344.445862,100.524063 
	C343.797424,101.567513 342.144775,102.582527 340.946075,102.596687 
	C328.306152,102.745979 315.663788,102.689079 302.441498,102.689079 
	C302.334320,100.585258 302.170715,98.838577 302.168121,97.091652 
	C302.147095,82.927071 301.873871,68.755554 302.219543,54.599392 
	C302.800110,30.822233 292.968842,13.184537 272.075684,1.338115 
	C333.902283,1.000000 395.804596,1.000000 458.000000,1.000000 
	C458.000000,31.353600 458.000000,61.708141 458.000000,92.531342 
M442.687286,70.794250 
	C443.016815,67.832932 441.733093,66.545372 438.720612,66.606438 
	C433.411957,66.714043 428.097809,66.730789 422.789551,66.616989 
	C418.534912,66.525772 419.102478,69.449806 419.142090,72.077766 
	C419.183044,74.795166 418.323761,78.070976 422.906921,77.989792 
	C427.386444,77.910439 431.894531,77.680977 436.342773,78.065201 
	C441.371277,78.499550 443.543488,76.736534 442.687286,70.794250 
M365.701508,66.657616 
	C359.415222,66.786530 362.471680,71.575752 361.978668,74.427094 
	C361.382599,77.874542 363.980804,77.983498 366.457520,77.972443 
	C371.270172,77.950958 376.092163,77.779976 380.892914,78.019363 
	C385.132080,78.230743 385.363739,75.786705 385.196442,72.640404 
	C385.042938,69.753090 386.031464,66.388222 381.096741,66.607864 
	C376.293671,66.821648 371.473389,66.649582 365.701508,66.657616 
z"/>
<path fill="#FFFBFA" opacity="1.000000" stroke="none" 
	d="
M1.000000,279.468933 
	C7.222714,287.694305 14.690330,294.960358 24.763874,299.753784 
	C17.078712,300.000000 9.157424,300.000000 1.000000,300.000000 
	C1.000000,293.314453 1.000000,286.626160 1.000000,279.468933 
z"/>
<path fill="#FFFAF8" opacity="1.000000" stroke="none" 
	d="
M23.531263,1.000000 
	C14.908533,6.139006 7.288266,12.947414 1.000500,21.634205 
	C1.000000,15.070397 1.000000,8.140795 1.000000,1.000000 
	C8.352834,1.000000 15.707680,1.000000 23.531263,1.000000 
z"/>
<path fill="#FFFEFD" opacity="1.000000" stroke="none" 
	d="
M119.000122,23.273943 
	C161.326782,23.274179 203.153427,23.263561 244.980072,23.279457 
	C264.292053,23.286797 275.017883,33.985260 275.033508,53.231823 
	C275.051086,74.895012 275.037872,96.558228 275.038086,118.221428 
	C275.038086,119.862541 275.038086,121.503654 275.038086,123.875473 
	C272.884155,123.875473 271.119751,123.875458 269.355316,123.875458 
	C241.526428,123.875465 213.697281,123.816299 185.869003,123.947594 
	C182.234955,123.964737 179.896515,123.037689 177.560471,119.998672 
	C156.756760,92.934616 117.260124,93.308830 96.744102,120.703674 
	C94.919388,123.140182 93.090797,124.058098 90.134605,123.938225 
	C84.695908,123.717690 79.241867,123.875298 73.188515,123.875298 
	C73.188515,119.670021 73.359543,116.039284 73.142609,112.431877 
	C72.903801,108.460640 72.609047,104.446770 71.782768,100.569954 
	C70.975044,96.780167 68.472176,94.640060 64.224869,94.773102 
	C58.731155,94.945190 53.222740,94.962166 47.730476,94.768082 
	C43.272327,94.610535 40.710308,96.781883 39.869427,100.832176 
	C39.130367,104.392021 38.637005,108.072563 38.622990,111.702065 
	C38.523262,137.530838 38.492893,163.360550 38.608162,189.189209 
	C38.677940,204.825485 40.227421,206.244812 55.569679,206.244766 
	C57.569359,206.244766 59.569046,206.247864 61.568718,206.243683 
	C69.474335,206.227112 71.803139,204.591873 72.616287,196.711533 
	C73.226204,190.800766 72.736748,184.776535 72.736748,177.990311 
	C80.242714,177.990311 86.994713,177.864365 93.732933,178.112610 
	C94.874023,178.154648 96.150307,179.648163 97.036514,180.737579 
	C118.904198,207.619781 155.877182,207.653687 177.834991,180.864410 
	C178.942429,179.513290 180.961105,178.091934 182.562485,178.083847 
	C212.723282,177.931519 242.885101,177.986115 273.046692,178.016373 
	C273.510773,178.016830 273.974609,178.254578 274.784637,178.476318 
	C274.869263,180.059891 275.029480,181.674194 275.030670,183.288635 
	C275.046600,205.118454 275.067291,226.948349 275.031281,248.778122 
	C275.002563,266.190674 264.056427,277.197937 246.611221,277.208282 
	C180.455170,277.247528 114.299049,277.244202 48.142979,277.211060 
	C31.721664,277.202850 20.420855,266.114716 20.397490,249.622253 
	C20.303526,183.299667 20.309362,116.976807 20.390549,50.654190 
	C20.410051,34.722279 31.861410,23.424265 48.012600,23.320559 
	C71.507568,23.169693 95.004204,23.276817 119.000122,23.273943 
z"/>
<path fill="#FFFCFB" opacity="1.000000" stroke="none" 
	d="
M429.575378,124.994476 
	C427.138397,124.449158 425.035583,123.892014 422.930695,123.883926 
	C406.602997,123.821159 390.274902,123.864456 373.946930,123.874596 
	C372.147888,123.875710 370.348846,123.874748 368.234467,123.874748 
	C368.234467,120.472557 368.234467,117.554642 368.234467,114.197937 
	C391.898712,114.197937 415.615234,114.197937 439.730408,114.197937 
	C439.730408,137.827972 439.730408,161.520737 439.730408,185.521835 
	C415.953766,185.521835 392.370148,185.521835 368.184875,185.521835 
	C368.075806,183.262741 367.968231,181.033951 367.819397,177.951111 
	C373.372101,177.951111 378.623840,177.952972 383.875610,177.950043 
	C385.541687,177.949112 387.213043,178.017471 388.872742,177.910446 
	C392.352020,177.686127 394.715088,175.907043 394.565582,172.310150 
	C394.417938,168.757339 391.998291,167.087143 388.484619,167.081573 
	C381.853638,167.071060 375.222687,167.078522 368.247711,167.078522 
	C368.247711,163.253708 368.247711,159.875961 368.247711,155.928467 
	C379.218414,155.928467 389.998962,155.928818 400.779510,155.928131 
	C402.612244,155.928009 404.444977,155.917282 406.277679,155.922256 
	C409.958893,155.932266 412.683258,154.376740 412.666229,150.506439 
	C412.649445,146.697372 410.034851,145.039322 406.301178,145.045715 
	C395.471436,145.064285 384.641632,145.047577 373.811859,145.044876 
	C372.020905,145.044434 370.229980,145.044815 368.181885,145.044815 
	C368.181885,141.419510 368.181885,138.352203 368.181885,134.663986 
	C370.353027,134.663986 372.297058,134.664139 374.241119,134.663971 
	C391.068939,134.662445 407.897125,134.727646 424.724335,134.625931 
	C431.303436,134.586182 433.256470,130.863739 429.575378,124.994476 
z"/>
<path fill="#FFFCFB" opacity="1.000000" stroke="none" 
	d="
M232.000000,155.927002 
	C246.447189,155.926987 260.394379,155.926987 274.698303,155.926987 
	C274.698303,159.713242 274.698303,163.085678 274.698303,166.765900 
	C245.032074,166.765900 215.523071,166.765900 185.610672,166.765900 
	C186.426483,163.069153 187.169083,159.704163 188.002640,155.927002 
	C202.610031,155.927002 217.055023,155.927002 232.000000,155.927002 
z"/>
<path fill="#FFFDFC" opacity="1.000000" stroke="none" 
	d="
M272.803558,134.711716 
	C274.114807,137.820724 274.945770,140.902298 275.955231,144.645874 
	C245.934250,144.645874 217.075378,144.645874 187.958023,144.645874 
	C187.297699,141.629562 186.628174,138.571213 185.777252,134.684280 
	C214.889435,134.684280 243.606354,134.684280 272.803558,134.711716 
z"/>
<path fill="#FFFAF8" opacity="1.000000" stroke="none" 
	d="
M325.993835,167.075287 
	C317.905060,167.075287 310.315277,167.075287 302.443970,167.075287 
	C302.443970,163.247620 302.443970,160.001190 302.443970,156.333450 
	C315.000061,156.333450 327.508270,156.333450 340.398315,156.333450 
	C340.398315,159.680634 340.398315,163.051834 340.398315,167.075287 
	C335.679474,167.075287 331.086151,167.075287 325.993835,167.075287 
z"/>
<path fill="#FFFBFA" opacity="1.000000" stroke="none" 
	d="
M321.999695,145.082062 
	C315.242493,145.082062 308.984985,145.082062 302.447388,145.082062 
	C302.447388,141.438339 302.447388,138.382263 302.447388,134.991150 
	C315.183868,134.991150 327.681885,134.991150 340.475708,134.991150 
	C340.475708,138.336487 340.475708,141.394867 340.475708,145.082062 
	C334.335236,145.082062 328.417328,145.082062 321.999695,145.082062 
z"/>
<path fill="#FFFDFC" opacity="1.000000" stroke="none" 
	d="
M49.445011,125.925438 
	C49.445011,119.341599 49.445011,112.757759 49.445011,105.947227 
	C53.988651,105.947227 57.716221,105.947227 61.859169,105.947227 
	C61.859169,111.953415 61.859169,117.653305 61.859169,122.928268 
	C58.299076,123.893433 55.053673,124.773285 51.213707,125.836395 
	C50.227768,125.988251 49.836391,125.956841 49.445011,125.925438 
z"/>
<path fill="#FFFEFD" opacity="1.000000" stroke="none" 
	d="
M52.134151,176.928207 
	C55.220196,177.428864 58.306244,177.929504 61.855003,178.505219 
	C61.855003,183.714798 61.855003,189.234756 61.855003,195.061676 
	C57.707336,195.061676 53.974499,195.061676 49.312222,195.061676 
	C49.312222,189.205170 49.312222,183.601196 49.717922,177.566010 
	C50.793800,177.065933 51.463974,176.997070 52.134151,176.928207 
z"/>
<path fill="#FFE6DD" opacity="1.000000" stroke="none" 
	d="
M49.334618,126.387329 
	C49.836391,125.956841 50.227768,125.988251 50.910931,126.062180 
	C50.083363,132.960205 50.316513,133.157028 62.153145,135.117386 
	C62.232437,136.653503 62.348183,138.267212 62.389992,139.882843 
	C62.431648,141.492615 62.399124,143.104309 62.399124,144.628540 
	C50.893272,146.207245 50.893272,146.207245 50.640934,152.626129 
	C50.092308,153.123718 49.768169,153.119034 49.444847,153.057755 
	C49.371307,144.321579 49.297768,135.585403 49.334618,126.387329 
z"/>
<path fill="#FFF8F5" opacity="1.000000" stroke="none" 
	d="
M81.983292,167.086090 
	C78.901466,167.086090 76.300560,167.086090 73.438156,167.086090 
	C73.438156,163.233810 73.438156,159.992462 73.438156,156.327667 
	C77.858040,156.327667 82.223206,156.327667 86.958443,156.327667 
	C87.699181,159.502274 88.476250,162.832581 89.468727,167.086075 
	C86.868080,167.086075 84.666145,167.086075 81.983292,167.086090 
z"/>
<path fill="#FFFCFB" opacity="1.000000" stroke="none" 
	d="
M49.374996,153.516846 
	C49.768169,153.119034 50.092308,153.123718 50.659939,153.046341 
	C54.377468,154.389221 57.852318,155.757538 61.958145,157.374313 
	C61.958145,159.728806 61.958145,163.084335 61.958145,165.928314 
	C58.232018,167.159576 54.808899,168.290710 50.898125,169.665237 
	C50.087635,169.854263 49.765953,169.860367 49.445419,169.926971 
	C49.398663,164.609955 49.351906,159.292938 49.374996,153.516846 
z"/>
<path fill="#FFF9F7" opacity="1.000000" stroke="none" 
	d="
M75.349976,145.052216 
	C74.080086,141.951508 73.269814,138.876495 72.275879,135.104523 
	C78.503517,135.104523 83.512924,135.104523 88.977722,135.104523 
	C88.304169,138.427429 87.663124,141.589935 86.956108,145.077927 
	C83.078491,145.077927 79.444031,145.077927 75.349976,145.052216 
z"/>
<path fill="#FFE6DD" opacity="1.000000" stroke="none" 
	d="
M49.336674,170.364487 
	C49.765953,169.860367 50.087635,169.854263 50.650459,169.942154 
	C51.153809,172.074387 51.417168,174.173096 51.907341,176.600006 
	C51.463974,176.997070 50.793800,177.065933 49.786629,177.109192 
	C49.375732,174.989731 49.301830,172.895859 49.336674,170.364487 
z"/>
<path fill="#FF672C" opacity="1.000000" stroke="none" 
	d="
M378.974060,220.855255 
	C380.461548,220.855408 381.458649,220.853363 382.455780,220.856079 
	C388.912598,220.873627 391.252045,224.022125 389.076965,230.112671 
	C388.753632,231.017914 387.193390,232.015518 386.174591,232.049591 
	C380.530640,232.238373 374.876617,232.190994 369.227112,232.128891 
	C364.396027,232.075775 366.233093,228.321640 365.972473,225.874146 
	C365.699677,223.312454 365.636169,220.702118 369.510712,220.850754 
	C372.497375,220.965332 375.492401,220.861801 378.974060,220.855255 
z"/>
<path fill="#FF6A31" opacity="1.000000" stroke="none" 
	d="
M442.688416,71.224518 
	C443.543488,76.736534 441.371277,78.499550 436.342773,78.065201 
	C431.894531,77.680977 427.386444,77.910439 422.906921,77.989792 
	C418.323761,78.070976 419.183044,74.795166 419.142090,72.077766 
	C419.102478,69.449806 418.534912,66.525772 422.789551,66.616989 
	C428.097809,66.730789 433.411957,66.714043 438.720612,66.606438 
	C441.733093,66.545372 443.016815,67.832932 442.688416,71.224518 
z"/>
<path fill="#FF672D" opacity="1.000000" stroke="none" 
	d="
M366.181091,66.652267 
	C371.473389,66.649582 376.293671,66.821648 381.096741,66.607864 
	C386.031464,66.388222 385.042938,69.753090 385.196442,72.640404 
	C385.363739,75.786705 385.132080,78.230743 380.892914,78.019363 
	C376.092163,77.779976 371.270172,77.950958 366.457520,77.972443 
	C363.980804,77.983498 361.382599,77.874542 361.978668,74.427094 
	C362.471680,71.575752 359.415222,66.786530 366.181091,66.652267 
z"/>
</svg>