<svg version="1.1" id="Layer_1" xmlns="http://www.w3.org/2000/svg" xmlns:xlink="http://www.w3.org/1999/xlink" x="0px" y="0px"
	 width="100%" viewBox="0 0 2560 2560" enable-background="new 0 0 2560 2560" xml:space="preserve">
<path fill="#FF6428" opacity="1.000000" stroke="none" 
	d="
M1252.000000,2.000002 
	C1260.049072,2.000000 1268.098145,2.000000 1277.821777,2.330464 
	C1289.757324,3.017343 1300.018311,3.373758 1311.182861,3.744702 
	C1319.406616,3.801558 1326.726685,3.843885 1334.918701,4.005415 
	C1342.104980,4.621335 1348.412354,5.236511 1354.734375,5.596353 
	C1415.052490,9.029620 1474.682373,17.526775 1533.749023,30.059488 
	C1663.488281,57.587479 1785.998169,104.273788 1900.814697,170.569824 
	C2039.710449,250.769394 2159.616699,353.333160 2259.757568,478.795685 
	C2381.953125,631.889771 2464.379150,804.033325 2507.017578,995.202820 
	C2522.645020,1065.267944 2532.356201,1136.206299 2535.419434,1207.901245 
	C2539.226807,1297.016724 2534.849365,1385.727539 2520.316406,1473.904175 
	C2507.220215,1553.362305 2487.021729,1630.897339 2459.241943,1706.410156 
	C2403.961426,1856.676758 2322.764648,1991.540649 2216.285400,2111.048096 
	C2100.592041,2240.896484 1964.017578,2343.045166 1806.509644,2416.860107 
	C1647.154419,2491.541016 1479.208008,2530.595703 1303.410767,2535.513184 
	C1213.196411,2538.036865 1123.658447,2530.668213 1034.907104,2513.936768 
	C934.931580,2495.089111 838.574707,2464.793213 746.062439,2422.539307 
	C590.373291,2351.429443 454.418213,2252.918945 338.505402,2126.961182 
	C213.207825,1990.805298 121.884789,1834.664307 64.660355,1658.689453 
	C43.301796,1593.008057 27.630314,1525.944458 17.502769,1457.595215 
	C11.442308,1416.694092 7.384933,1375.605591 5.463903,1333.392578 
	C4.453189,1316.976440 3.226594,1301.488281 1.999999,1286.000000 
	C2.000000,1275.955811 2.000000,1265.911621 2.000998,1254.123535 
	C3.108879,1236.136353 4.215763,1219.892822 5.424999,1202.745972 
	C8.777752,1134.168091 17.734615,1067.253540 32.050156,1001.034363 
	C56.543381,887.736450 95.802361,779.809509 150.112717,677.426086 
	C217.867081,549.698486 304.794067,436.632050 411.094055,338.595764 
	C522.900269,235.481369 649.047180,154.723648 789.797241,96.916046 
	C874.186951,62.256256 961.369385,37.297623 1051.204956,21.428810 
	C1102.446167,12.377431 1154.100220,7.247396 1206.896362,4.162536 
	C1222.544067,3.578287 1237.272095,2.789145 1252.000000,2.000002 
M1498.722778,1786.250000 
	C1446.097046,1767.346313 1391.886963,1755.490356 1336.219360,1750.665039 
	C1286.236084,1746.332642 1236.408447,1748.161987 1186.718018,1755.457764 
	C1116.876343,1765.712158 1050.552856,1787.118530 987.648071,1818.717529 
	C883.456421,1871.056152 797.328613,1945.473022 725.095154,2036.489502 
	C676.996338,2097.095947 637.866211,2163.153076 605.724548,2233.423584 
	C600.092590,2245.736572 595.108459,2258.345459 589.713440,2271.081543 
	C737.964539,2372.275146 899.645020,2436.984375 1075.600464,2465.109131 
	C1268.747803,2495.981934 1458.796021,2481.583252 1645.038330,2421.322998 
	C1761.036865,2383.790771 1869.137939,2330.203613 1969.440186,2260.450684 
	C1968.101318,2257.245361 1967.237427,2255.114502 1966.326050,2253.004395 
	C1948.072021,2210.736572 1926.814331,2170.041992 1902.783447,2130.765137 
	C1856.209229,2054.642334 1800.451660,1986.128540 1733.493286,1927.011108 
	C1664.367065,1865.979492 1587.049683,1818.396240 1498.722778,1786.250000 
M1214.507324,1620.530884 
	C1268.644287,1627.684082 1322.392090,1625.271118 1375.093994,1611.069580 
	C1500.562500,1577.259888 1593.178833,1502.070435 1651.051392,1385.819702 
	C1693.922363,1299.703369 1704.666016,1208.429321 1685.181519,1114.329956 
	C1665.615356,1019.835938 1618.698364,940.825195 1545.171509,878.069397 
	C1474.194458,817.489746 1391.966919,784.231384 1298.861328,777.587341 
	C1233.551880,772.926819 1170.648682,783.134460 1110.172241,807.861816 
	C1027.493286,841.667175 961.955811,896.499817 913.478821,971.371094 
	C874.529663,1031.526855 852.768677,1097.612305 847.478882,1169.191772 
	C844.083191,1215.141113 847.437561,1260.505249 859.383850,1304.922485 
	C893.035767,1430.042969 967.997559,1522.082397 1083.408936,1580.786743 
	C1124.070068,1601.469116 1167.396484,1614.415894 1214.507324,1620.530884 
z"/>
<path fill="#FFFFFF" opacity="1.000000" stroke="none" 
	d="
M5.248023,1334.320312 
	C7.384933,1375.605591 11.442308,1416.694092 17.502769,1457.595215 
	C27.630314,1525.944458 43.301796,1593.008057 64.660355,1658.689453 
	C121.884789,1834.664307 213.207825,1990.805298 338.505402,2126.961182 
	C454.418213,2252.918945 590.373291,2351.429443 746.062439,2422.539307 
	C838.574707,2464.793213 934.931580,2495.089111 1034.907104,2513.936768 
	C1123.658447,2530.668213 1213.196411,2538.036865 1303.410767,2535.513184 
	C1479.208008,2530.595703 1647.154419,2491.541016 1806.509644,2416.860107 
	C1964.017578,2343.045166 2100.592041,2240.896484 2216.285400,2111.048096 
	C2322.764648,1991.540649 2403.961426,1856.676758 2459.241943,1706.410156 
	C2487.021729,1630.897339 2507.220215,1553.362305 2520.316406,1473.904175 
	C2534.849365,1385.727539 2539.226807,1297.016724 2535.419434,1207.901245 
	C2532.356201,1136.206299 2522.645020,1065.267944 2507.017578,995.202820 
	C2464.379150,804.033325 2381.953125,631.889771 2259.757568,478.795685 
	C2159.616699,353.333160 2039.710449,250.769394 1900.814697,170.569824 
	C1785.998169,104.273788 1663.488281,57.587479 1533.749023,30.059488 
	C1474.682373,17.526775 1415.052490,9.029620 1354.734375,5.596353 
	C1348.412354,5.236511 1342.104980,4.621335 1334.887939,3.534336 
	C1333.984985,2.944055 1334.000000,2.000000 1334.000000,2.000000 
	C1743.286133,2.000000 2152.572266,2.000000 2561.929199,2.000000 
	C2561.929199,855.187744 2561.929199,1708.375488 2561.929199,2561.781738 
	C1708.910645,2561.781738 855.821228,2561.781738 2.000000,2561.781738 
	C2.000000,2153.291748 2.000000,1744.583252 2.546259,1334.948975 
	C3.811021,1334.122192 4.529523,1334.221191 5.248023,1334.320312 
z"/>
<path fill="#FFFFFF" opacity="1.000000" stroke="none" 
	d="
M1205.976562,3.957644 
	C1154.100220,7.247396 1102.446167,12.377431 1051.204956,21.428810 
	C961.369385,37.297623 874.186951,62.256256 789.797241,96.916046 
	C649.047180,154.723648 522.900269,235.481369 411.094055,338.595764 
	C304.794067,436.632050 217.867081,549.698486 150.112717,677.426086 
	C95.802361,779.809509 56.543381,887.736450 32.050156,1001.034363 
	C17.734615,1067.253540 8.777752,1134.168091 4.866802,1202.801270 
	C3.470838,1203.839966 2.735423,1203.920044 2.000004,1204.000000 
	C2.000000,803.479065 2.000000,402.958069 2.000000,2.000000 
	C402.708344,2.000000 803.416870,2.000000 1205.109497,2.490042 
	C1206.093628,2.980083 1205.976562,3.957644 1205.976562,3.957644 
z"/>
<path fill="#FFC2AA" opacity="1.000000" stroke="none" 
	d="
M2.000004,1204.937256 
	C2.735423,1203.920044 3.470838,1203.839966 4.764449,1203.704590 
	C4.215763,1219.892822 3.108879,1236.136353 2.000998,1253.189941 
	C2.000000,1237.958130 2.000000,1221.916382 2.000004,1204.937256 
z"/>
<path fill="#FFC9B4" opacity="1.000000" stroke="none" 
	d="
M5.463905,1333.392578 
	C4.529523,1334.221191 3.811021,1334.122192 2.546259,1334.011597 
	C2.000000,1318.624878 2.000000,1303.249634 1.999999,1286.937256 
	C3.226594,1301.488281 4.453189,1316.976440 5.463905,1333.392578 
z"/>
<path fill="#FFC9B4" opacity="1.000000" stroke="none" 
	d="
M1206.896362,4.162536 
	C1205.976562,3.957644 1206.093628,2.980083 1206.046875,2.490042 
	C1220.708496,2.000000 1235.416992,2.000000 1251.062744,2.000002 
	C1237.272095,2.789145 1222.544067,3.578287 1206.896362,4.162536 
z"/>
<path fill="#FF8F63" opacity="1.000000" stroke="none" 
	d="
M1310.279175,3.730174 
	C1300.018311,3.373758 1289.757324,3.017343 1278.748291,2.330464 
	C1288.044189,2.000000 1298.088379,2.000000 1309.114624,2.436007 
	C1310.096680,2.872014 1310.279175,3.730174 1310.279175,3.730174 
z"/>
<path fill="#FFD4C4" opacity="1.000000" stroke="none" 
	d="
M1311.182861,3.744702 
	C1310.279175,3.730174 1310.096680,2.872014 1310.048340,2.436007 
	C1317.385864,2.000000 1324.771606,2.000000 1333.078735,2.000000 
	C1334.000000,2.000000 1333.984985,2.944055 1334.015869,3.415133 
	C1326.726685,3.843885 1319.406616,3.801558 1311.182861,3.744702 
z"/>
<path fill="#FFFFFF" opacity="1.000000" stroke="none" 
	d="
M1499.451050,1786.525635 
	C1587.049683,1818.396240 1664.367065,1865.979492 1733.493286,1927.011108 
	C1800.451660,1986.128540 1856.209229,2054.642334 1902.783447,2130.765137 
	C1926.814331,2170.041992 1948.072021,2210.736572 1966.326050,2253.004395 
	C1967.237427,2255.114502 1968.101318,2257.245361 1969.440186,2260.450684 
	C1869.137939,2330.203613 1761.036865,2383.790771 1645.038330,2421.322998 
	C1458.796021,2481.583252 1268.747803,2495.981934 1075.600464,2465.109131 
	C899.645020,2436.984375 737.964539,2372.275146 589.713440,2271.081543 
	C595.108459,2258.345459 600.092590,2245.736572 605.724548,2233.423584 
	C637.866211,2163.153076 676.996338,2097.095947 725.095154,2036.489502 
	C797.328613,1945.473022 883.456421,1871.056152 987.648071,1818.717529 
	C1050.552856,1787.118530 1116.876343,1765.712158 1186.718018,1755.457764 
	C1236.408447,1748.161987 1286.236084,1746.332642 1336.219360,1750.665039 
	C1391.886963,1755.490356 1446.097046,1767.346313 1499.451050,1786.525635 
z"/>
<path fill="#FFFFFF" opacity="1.000000" stroke="none" 
	d="
M1213.617188,1620.423462 
	C1167.396484,1614.415894 1124.070068,1601.469116 1083.408936,1580.786743 
	C967.997559,1522.082397 893.035767,1430.042969 859.383850,1304.922485 
	C847.437561,1260.505249 844.083191,1215.141113 847.478882,1169.191772 
	C852.768677,1097.612305 874.529663,1031.526855 913.478821,971.371094 
	C961.955811,896.499817 1027.493286,841.667175 1110.172241,807.861816 
	C1170.648682,783.134460 1233.551880,772.926819 1298.861328,777.587341 
	C1391.966919,784.231384 1474.194458,817.489746 1545.171509,878.069397 
	C1618.698364,940.825195 1665.615356,1019.835938 1685.181519,1114.329956 
	C1704.666016,1208.429321 1693.922363,1299.703369 1651.051392,1385.819702 
	C1593.178833,1502.070435 1500.562500,1577.259888 1375.093994,1611.069580 
	C1322.392090,1625.271118 1268.644287,1627.684082 1213.617188,1620.423462 
z"/>
</svg>